<?xml version="1.0" encoding="UTF-8" standalone="no" ?>
<!DOCTYPE svg PUBLIC "-//W3C//DTD SVG 1.1//EN" "http://www.w3.org/Graphics/SVG/1.1/DTD/svg11.dtd">
<svg xmlns="http://www.w3.org/2000/svg" xmlns:xlink="http://www.w3.org/1999/xlink" version="1.1" width="1080" height="1080" viewBox="0 0 1080 1080" xml:space="preserve">
<desc>Created with Fabric.js 5.2.4</desc>
<defs>
</defs>
<g transform="matrix(1 0 0 1 540 540)" id="7fc26062-7e12-419d-963f-23e2253be37d"  >
<rect style="stroke: none; stroke-width: 1; stroke-dasharray: none; stroke-linecap: butt; stroke-dashoffset: 0; stroke-linejoin: miter; stroke-miterlimit: 4; fill: rgb(255,255,255); fill-rule: nonzero; opacity: 1; visibility: hidden;" vector-effect="non-scaling-stroke"  x="-540" y="-540" rx="0" ry="0" width="1080" height="1080" />
</g>
<g transform="matrix(1 0 0 1 540 540)" id="3ab92bf2-b299-4fa6-8607-888d24e5eee2"  >
</g>
<g transform="matrix(39.85 0 0 39.85 540 561.61)" id="2b1dcf74-5d77-4984-9c47-b2d6147da89c"  >
<path style="stroke: rgb(0,0,0); stroke-width: 0; stroke-dasharray: none; stroke-linecap: butt; stroke-dashoffset: 0; stroke-linejoin: miter; stroke-miterlimit: 4; fill: rgb(255,255,255); fill-rule: nonzero; opacity: 1;" vector-effect="non-scaling-stroke"  transform=" translate(-8, -10)" d="M 8 20 C 7.46957 20 6.96086 19.7893 6.58579 19.4142 C 6.21071 19.0391 6 18.5304 6 18 L 10 18 C 10 18.5304 9.78929 19.0391 9.41421 19.4142 C 9.03914 19.7893 8.53043 20 8 20 Z M 16 17 L 0 17 L 0 15 L 2 14 L 2 8.5 C 1.94732 7.08912 2.26594 5.68913 2.924 4.44 C 3.24784 3.86727 3.68943 3.36971 4.21965 2.98015 C 4.74987 2.59059 5.35666 2.31788 6 2.18 L 6 0.00000416711 L 9.646 0.00000416711 C 9.01249 0.708013 8.61931 1.59836 8.52279 2.54351 C 8.42627 3.48865 8.63137 4.4401 9.10869 5.26155 C 9.58602 6.08299 10.3111 6.73229 11.18 7.11643 C 12.049 7.50057 13.0172 7.59983 13.946 7.4 C 13.981 7.757 13.998 8.127 13.998 8.5 L 13.998 14 L 15.998 15 L 15.998 17 L 16 17 Z M 13 6 C 12.606 5.99935 12.2161 5.9211 11.8523 5.76973 C 11.4886 5.61836 11.1583 5.39683 10.8801 5.11779 C 10.602 4.83875 10.3816 4.50766 10.2314 4.14344 C 10.0813 3.77921 10.0043 3.38897 10.005 2.995 C 10.0057 2.60104 10.0839 2.21106 10.2353 1.84733 C 10.3866 1.48361 10.6082 1.15326 10.8872 0.875148 C 11.1663 0.597037 11.4973 0.37661 11.8616 0.226452 C 12.2258 0.0762947 12.616 -0.000652448 13.01 0.00000416711 C 13.8056 0.00133026 14.5682 0.318673 15.1299 0.882219 C 15.6915 1.44577 16.0063 2.20935 16.005 3.005 C 16.0037 3.80065 15.6863 4.56319 15.1228 5.12486 C 14.5592 5.68653 13.7956 6.00133 13 6 Z" stroke-linecap="round" />
</g>
<g transform="matrix(3.64 0 0 3.64 739.01 277.42)" id="f2a5c7be-f05e-4e2c-bd32-cc0b5913b5c3"  >
<circle style="stroke: rgb(0,0,0); stroke-width: 0; stroke-dasharray: none; stroke-linecap: butt; stroke-dashoffset: 0; stroke-linejoin: miter; stroke-miterlimit: 4; fill: rgb(255,0,0); fill-rule: nonzero; opacity: 1;" vector-effect="non-scaling-stroke"  cx="0" cy="0" r="35" />
</g>
</svg>